# xmcd
#
# Track frame offsets:
#	150
#	14695
#	26256
#	41524
#	52305
#	73294
#	88660
#	102001
#	114722
#	130219
#	145303
#	158524
#	172358
#	184626
#	199036
#	209425
#	222919
#	228301
#	239088
#	249754
#
# Disc length: 3502 seconds
#
# Revision: 0
# Processed by: cddbd v1.5.2PL0 Copyright (c) Steve Scherf et al.
# Submitted via: audiograbber 1.83.01
#
DISCID=280dac14
DTITLE=Country - Lagerfeuer Country - CD1
DYEAR=2016
DGENRE=Country
TTITLE0=The Nashville Riders - Take Me Home, Country Roards
TTITLE1=The Nashville Riders - Jolene
TTITLE2=The Nashville Riders - Achy Breaky Heart
TTITLE3=Ferlin Husky - On The Road Again
TTITLE4=The Nashville Riders - Sweet Home Alabama
TTITLE5=The Nashville Riders - The Night They Drove Old Dixie Down
TTITLE6=The Nashville Riders - Jackson
TTITLE7=The Nashville Riders - These Boots Are Made For Walking
TTITLE8=Jack Greene - Lucille
TTITLE9=The Nashville Riders - The Gambler
TTITLE10=The Nashville Riders - Rhinestone Cowboy
TTITLE11=The Nashville Riders - Gentle On My Mind
TTITLE12=Lynn Anderson - Stand By Your Man
TTITLE13=The Nashville Riders - Green Green Grass Of Home
TTITLE14=Red Simpson - Six Days On The Roard
TTITLE15=The Nashville Riders - The Good, The Bad And The Ugly
TTITLE16=The Nashville Riders - Bonanza
TTITLE17=Bobby Bond - King Of The Roard
TTITLE18=The Miles Dixon Orchestra - The Man With The Harmonica
TTITLE19=The Nashville Riders - Wand' rin' Star
EXTD=
EXTT0=
EXTT1=
EXTT2=
EXTT3=
EXTT4=
EXTT5=
EXTT6=
EXTT7=
EXTT8=
EXTT9=
EXTT10=
EXTT11=
EXTT12=
EXTT13=
EXTT14=
EXTT15=
EXTT16=
EXTT17=
EXTT18=
EXTT19=
PLAYORDER=
